<svg width="24" height="24" viewBox="0 0 24 24" fill="none" xmlns="http://www.w3.org/2000/svg">
<g id="alarmclock">
<g id="Group">
<path id="Vector" d="M16.275 13.05H12.8625V9.56245C12.8625 9.11245 12.4875 8.69995 12 8.69995C11.55 8.69995 11.1375 9.07495 11.1375 9.56245V13.05H11.025C10.575 13.05 10.1625 13.425 10.1625 13.9125C10.1625 14.4 10.5375 14.775 11.025 14.775H11.1375V14.8875C11.1375 15.3375 11.5125 15.75 12 15.75C12.45 15.75 12.8625 15.375 12.8625 14.8875V14.775H16.275C16.725 14.775 17.1375 14.4 17.1375 13.9125C17.1375 13.425 16.725 13.05 16.275 13.05Z" fill="#121212"/>
<path id="Vector_2" d="M22.3125 7.16245C22.3125 5.09995 20.6625 3.44995 18.6 3.44995C17.625 3.44995 16.725 3.82495 16.05 4.46245C15.0375 4.01245 13.9875 3.71245 12.825 3.63745V2.36245H13.875C14.325 2.36245 14.7375 1.98745 14.7375 1.49995C14.7375 1.01245 14.3625 0.637451 13.875 0.637451H10.0875C9.63752 0.637451 9.22502 1.01245 9.22502 1.49995C9.22502 1.98745 9.60002 2.36245 10.0875 2.36245H11.1375V3.67495C10.0125 3.78745 8.92502 4.04995 7.91252 4.49995C7.23752 3.86245 6.33752 3.48745 5.36252 3.48745C3.30002 3.48745 1.65002 5.13745 1.65002 7.19995C1.65002 8.21245 2.06252 9.18745 2.81252 9.86245C2.36252 10.9874 2.10002 12.2249 2.10002 13.4999C2.10002 18.9374 6.52502 23.3624 11.9625 23.3624C17.4 23.3624 21.825 18.9374 21.825 13.4999C21.825 12.2249 21.5625 10.9874 21.1125 9.86245C21.9 9.14995 22.3125 8.17495 22.3125 7.16245ZM18.6 5.13745C19.725 5.13745 20.625 6.03745 20.625 7.16245C20.625 7.53745 20.5125 7.91245 20.325 8.21245C19.6125 7.08745 18.7125 6.14995 17.625 5.39995C17.925 5.21245 18.2625 5.13745 18.6 5.13745ZM3.37502 7.16245C3.37502 6.03745 4.27502 5.13745 5.40002 5.13745C5.73752 5.13745 6.07502 5.21245 6.37502 5.39995C5.28752 6.14995 4.38752 7.12495 3.67502 8.21245C3.48752 7.87495 3.37502 7.53745 3.37502 7.16245ZM12 21.6749C7.50002 21.6749 3.82502 18 3.82502 13.4999C3.82502 8.99995 7.50002 5.32495 12 5.32495C16.5 5.32495 20.175 8.99995 20.175 13.4999C20.175 18 16.5 21.6749 12 21.6749Z" fill="#121212"/>
</g>
</g>
</svg>
