<svg width="24" height="24" viewBox="0 0 24 24" fill="none" xmlns="http://www.w3.org/2000/svg">
<path d="M21.6 19.9124L20.85 18.7499C20.7 18.525 20.625 18.2999 20.625 18.0374V10.2374C20.625 8.02495 19.6875 5.96245 17.9625 4.42495C16.575 3.18745 14.775 2.39995 12.8625 2.24995V1.49995C12.8625 1.04995 12.4875 0.637451 12 0.637451C11.55 0.637451 11.1375 1.01245 11.1375 1.49995V2.21245C11.0625 2.21245 10.9875 2.21245 10.9125 2.24995C6.56245 2.73745 3.29995 6.22495 3.29995 10.3875V18.0374C3.26245 18.4124 3.18745 18.6 3.11245 18.7125L2.39995 19.9124C2.17495 20.2874 2.17495 20.7374 2.39995 21.1124C2.62495 21.4499 2.99995 21.6749 3.41245 21.6749H11.175V22.4999C11.175 22.9499 11.55 23.3624 12.0375 23.3624C12.4875 23.3624 12.9 22.9874 12.9 22.4999V21.6749H20.625C21.0375 21.6749 21.4125 21.4499 21.6375 21.1124C21.8625 20.7374 21.8624 20.2874 21.6 19.9124ZM4.31245 19.9874L4.57495 19.5374C4.79995 19.1624 4.91245 18.7125 4.98745 18.1875V10.3875C4.98745 7.08745 7.61245 4.31245 11.1 3.93745C13.2375 3.71245 15.3375 4.34995 16.875 5.69995C18.225 6.89995 18.975 8.51245 18.975 10.2374V18.0374C18.975 18.5999 19.125 19.125 19.4625 19.65L19.6875 19.9874H4.31245Z" fill="#121212"/>
<circle cx="18" cy="6" r="4" fill="#FC5B51"/>
</svg>
