<svg width="24" height="24" viewBox="0 0 24 24" fill="none" xmlns="http://www.w3.org/2000/svg">
<g clip-path="url(#clip0_77_2683)">
<path d="M22.0873 15.8626L19.0498 12.8251C17.5123 11.2876 15.1123 11.1376 13.3873 12.3751L11.5873 10.5751C12.1123 9.8626 12.4123 9.0001 12.4123 8.0626C12.4123 6.9001 11.9623 5.7751 11.1373 4.9501L8.0998 1.9126C6.4123 0.225098 3.6373 0.225098 1.9123 1.9126C1.1248 2.7751 0.674805 3.8626 0.674805 5.0251C0.674805 6.1876 1.1248 7.2751 1.9498 8.1001L4.9498 11.1376C5.8123 12.0001 6.9373 12.4126 8.02481 12.4126C8.8498 12.4126 9.63731 12.1876 10.3498 11.7376L12.2248 13.6126C11.7748 14.2876 11.5498 15.1126 11.5498 15.9376C11.5498 17.1001 11.9998 18.1876 12.8248 19.0126L15.8248 22.0501C16.6873 22.9126 17.8123 23.3251 18.8998 23.3251C20.0248 23.3251 21.1498 22.9126 21.9748 22.0501C22.7998 21.2251 23.2498 20.1376 23.2498 18.9751C23.3623 17.8126 22.9123 16.7251 22.0873 15.8626ZM6.1498 9.9376L3.1498 6.9001C2.6248 6.3751 2.3623 5.7001 2.3623 4.9876C2.3623 4.2751 2.6248 3.6001 3.1498 3.0751C3.6748 2.5501 4.3498 2.2876 5.0623 2.2876C5.7373 2.2876 6.44981 2.5501 6.9748 3.0751L10.0123 6.0751C10.4998 6.6001 10.7998 7.2751 10.7998 7.9876C10.7998 8.4751 10.6873 8.8876 10.4623 9.3001L9.52481 8.3626C9.1873 8.0251 8.66231 8.0251 8.32481 8.3626C7.98731 8.7001 7.98731 9.2251 8.32481 9.5626L9.18731 10.4251C8.1373 10.9501 6.9373 10.7626 6.1498 9.9376ZM20.8498 20.8501C19.7998 21.9001 18.0748 21.9001 17.0623 20.8501L14.0623 17.8126C13.5373 17.2876 13.2748 16.6126 13.2748 15.9001C13.2748 15.5251 13.3498 15.1501 13.4998 14.8126L14.3623 15.6376C14.5123 15.7876 14.7373 15.9001 14.9623 15.9001C15.1873 15.9001 15.4123 15.8251 15.5623 15.6376C15.8998 15.3001 15.8998 14.7751 15.5623 14.4376L14.6248 13.6126C15.0373 13.3876 15.4873 13.2751 15.9373 13.2751C16.6123 13.2751 17.3248 13.5376 17.8498 14.0626L20.8873 17.0626C21.3748 17.5876 21.6748 18.2626 21.6748 18.9751C21.6373 19.6876 21.3748 20.3626 20.8498 20.8501Z" fill="#121212"/>
</g>
<defs>
<clipPath id="clip0_77_2683">
<rect width="24" height="24" fill="white"/>
</clipPath>
</defs>
</svg>
