<svg width="24" height="24" viewBox="0 0 24 24" fill="none" xmlns="http://www.w3.org/2000/svg">
<g clip-path="url(#clip0_77_1862)">
<path d="M7.68789 13.7249H6.52539C6.30039 13.7249 6.15039 13.8749 6.15039 14.0999V15.2249C6.15039 15.4499 6.30039 15.5999 6.52539 15.5999H7.68789C7.91289 15.5999 8.06289 15.4499 8.06289 15.2249V14.0999C8.06289 13.9124 7.87539 13.7249 7.68789 13.7249Z" fill="#121212"/>
<path d="M12.5629 13.7249H11.4004C11.1754 13.7249 11.0254 13.8749 11.0254 14.0999V15.2249C11.0254 15.4499 11.1754 15.5999 11.4004 15.5999H12.5629C12.7879 15.5999 12.9379 15.4499 12.9379 15.2249V14.0999C12.9379 13.9124 12.7879 13.7249 12.5629 13.7249Z" fill="#121212"/>
<path d="M17.475 13.7249H16.3125C16.0875 13.7249 15.9375 13.8749 15.9375 14.0999V15.2249C15.9375 15.4499 16.0875 15.5999 16.3125 15.5999H17.475C17.7 15.5999 17.85 15.4499 17.85 15.2249V14.0999C17.85 13.9124 17.7 13.7249 17.475 13.7249Z" fill="#121212"/>
<path d="M7.68789 18.5625H6.52539C6.30039 18.5625 6.15039 18.7125 6.15039 18.9375V20.0625C6.15039 20.2875 6.30039 20.4375 6.52539 20.4375H7.68789C7.91289 20.4375 8.06289 20.2875 8.06289 20.0625V18.9375C8.06289 18.75 7.87539 18.5625 7.68789 18.5625Z" fill="#121212"/>
<path d="M12.5629 18.5625H11.4004C11.1754 18.5625 11.0254 18.7125 11.0254 18.9375V20.0625C11.0254 20.2875 11.1754 20.4375 11.4004 20.4375H12.5629C12.7879 20.4375 12.9379 20.2875 12.9379 20.0625V18.9375C12.9379 18.75 12.7879 18.5625 12.5629 18.5625Z" fill="#121212"/>
<path d="M17.475 18.5625H16.3125C16.0875 18.5625 15.9375 18.7125 15.9375 18.9375V20.0625C15.9375 20.2875 16.0875 20.4375 16.3125 20.4375H17.475C17.7 20.4375 17.85 20.2875 17.85 20.0625V18.9375C17.85 18.75 17.7 18.5625 17.475 18.5625Z" fill="#121212"/>
<path d="M21.0002 5.77495H12.8627V5.06245C13.7252 4.72495 14.3252 3.89995 14.3252 2.92495C14.3252 1.64995 13.2752 0.637451 12.0002 0.637451C10.7252 0.637451 9.67519 1.64995 9.67519 2.92495C9.67519 3.89995 10.2752 4.72495 11.1377 5.06245V5.77495H3.0002C1.7252 5.77495 0.637695 6.82495 0.637695 8.13745V20.9999C0.637695 22.275 1.6877 23.3624 3.0002 23.3624H21.0002C22.2752 23.3624 23.3627 22.3124 23.3627 20.9999V8.09995C23.3627 6.82495 22.2752 5.77495 21.0002 5.77495ZM12.0002 2.32495C12.3377 2.32495 12.6377 2.58745 12.6377 2.92495C12.6377 3.26245 12.3752 3.52495 12.0002 3.52495C11.6252 3.52495 11.3627 3.26245 11.3627 2.92495C11.3627 2.58745 11.6627 2.32495 12.0002 2.32495ZM3.0002 7.46245H21.0002C21.3752 7.46245 21.6752 7.76245 21.6752 8.13745V10.4625H2.3627V8.13745C2.3627 7.72495 2.6252 7.46245 3.0002 7.46245ZM21.0002 21.6749H3.0002C2.6252 21.6749 2.3252 21.3749 2.3252 20.9999V12.1124H21.6377V20.9999C21.6752 21.3749 21.3752 21.6749 21.0002 21.6749Z" fill="#121212"/>
</g>
<defs>
<clipPath id="clip0_77_1862">
<rect width="24" height="24" fill="white"/>
</clipPath>
</defs>
</svg>
