<svg width="24" height="24" viewBox="0 0 24 24" fill="none" xmlns="http://www.w3.org/2000/svg">
<g clip-path="url(#clip0_235_8182)">
<path d="M15.8246 11.1375H12.8246V8.17498C12.8246 7.72498 12.4496 7.34998 11.9621 7.34998C11.5121 7.34998 11.1371 7.72498 11.1371 8.21248V11.175H8.17461C7.72461 11.175 7.34961 11.55 7.34961 12.0375C7.34961 12.4875 7.72461 12.8625 8.21211 12.8625H11.1746V15.825C11.1746 16.275 11.5496 16.65 12.0371 16.65C12.4871 16.65 12.8621 16.275 12.8621 15.7875V12.825H15.8246C16.2746 12.825 16.6496 12.45 16.6496 11.9625C16.6496 11.5125 16.2746 11.1375 15.8246 11.1375Z" fill="white"/>
<path d="M11.9998 0.674988C5.7373 0.674988 0.674805 5.73749 0.674805 12C0.674805 18.2625 5.7748 23.3625 12.0373 23.3625C18.2998 23.3625 23.3998 18.2625 23.3998 12C23.3623 5.73749 18.2623 0.674988 11.9998 0.674988ZM11.9998 21.675C6.67481 21.675 2.3623 17.325 2.3623 12C2.3623 6.67499 6.67481 2.36249 11.9998 2.36249C17.3248 2.36249 21.6748 6.67499 21.6748 12C21.6748 17.325 17.3248 21.675 11.9998 21.675Z" fill="white"/>
</g>
<defs>
<clipPath id="clip0_235_8182">
<rect width="24" height="24" fill="white"/>
</clipPath>
</defs>
</svg>
