<svg width="22" height="22" viewBox="0 0 22 22" fill="none" xmlns="http://www.w3.org/2000/svg">
<path d="M21.311 8.45662L21.3114 8.45669C21.3272 8.45912 21.3338 8.46375 21.3399 8.46965C21.3486 8.4781 21.3621 8.49652 21.3711 8.52783C21.3802 8.55929 21.3817 8.59361 21.376 8.62366C21.3713 8.6489 21.3627 8.66559 21.3548 8.67592L16.4536 13.7268L16.2783 13.9075L16.319 14.1559L17.4815 21.2434L17.4849 21.2638L17.4899 21.2838C17.49 21.2842 17.4901 21.2846 17.4901 21.2849C17.4883 21.2888 17.4819 21.2992 17.4666 21.3103C17.4503 21.3221 17.4326 21.3281 17.4189 21.3294C17.4079 21.3305 17.3995 21.329 17.3898 21.3238C17.3896 21.3237 17.3895 21.3236 17.3894 21.3236L11.3157 17.9868L11.0757 17.8549L10.8353 17.9862L4.72282 21.3237L4.70345 21.3342L4.68509 21.3465C4.66846 21.3576 4.65744 21.3616 4.65253 21.363C4.64991 21.3638 4.64825 21.364 4.64746 21.3641L4.64629 21.3642L4.64605 21.3642L4.64451 21.3637C4.64279 21.3631 4.63921 21.3615 4.63432 21.3578C4.61151 21.3407 4.58552 21.2984 4.59388 21.2402C4.59396 21.2396 4.59404 21.2391 4.59413 21.2385L5.75585 14.1559L5.7966 13.9075L5.62127 13.7268L0.70877 8.6643L0.696993 8.65217L0.684423 8.64085C0.666609 8.62482 0.658658 8.60921 0.654663 8.59349C0.650071 8.57541 0.649821 8.5522 0.65686 8.52783C0.663921 8.50339 0.676079 8.48545 0.687432 8.47476C0.696811 8.46593 0.707761 8.45958 0.725432 8.45677C0.72561 8.45674 0.725789 8.45671 0.725969 8.45669L7.47411 7.44447L7.73763 7.40494L7.85176 7.16416L10.9238 0.68283C10.9389 0.653979 10.9545 0.641226 10.9643 0.635204C10.9757 0.628233 10.9878 0.625 10.9999 0.625C11.012 0.625 11.0242 0.628233 11.0355 0.635204C11.0454 0.64125 11.0611 0.65408 11.0762 0.683169L14.1486 7.12767L14.2623 7.36622L14.5235 7.40662L21.311 8.45662Z" stroke="#DCDCDC"/>
</svg>
