<svg width="24" height="24" viewBox="0 0 24 24" fill="none" xmlns="http://www.w3.org/2000/svg">
<circle cx="12" cy="12" r="11.2" stroke="#121212" stroke-width="1.6"/>
<path d="M8.9834 6.99219V17H7.71875V8.57129L5.16895 9.50098V8.35938L8.78516 6.99219H8.9834ZM18.9502 11.2305V12.748C18.9502 13.5638 18.8773 14.252 18.7314 14.8125C18.5856 15.373 18.376 15.8242 18.1025 16.166C17.8291 16.5078 17.4987 16.7562 17.1113 16.9111C16.7285 17.0615 16.2956 17.1367 15.8125 17.1367C15.4297 17.1367 15.0765 17.0889 14.7529 16.9932C14.4294 16.8975 14.1377 16.7448 13.8779 16.5352C13.6227 16.321 13.404 16.043 13.2217 15.7012C13.0394 15.3594 12.9004 14.9447 12.8047 14.457C12.709 13.9694 12.6611 13.3997 12.6611 12.748V11.2305C12.6611 10.4147 12.734 9.73112 12.8799 9.17969C13.0303 8.62826 13.2422 8.1862 13.5156 7.85352C13.7891 7.51628 14.1172 7.27474 14.5 7.12891C14.8874 6.98307 15.3203 6.91016 15.7988 6.91016C16.1862 6.91016 16.5417 6.95801 16.8652 7.05371C17.1934 7.14486 17.485 7.29297 17.7402 7.49805C17.9954 7.69857 18.2119 7.96745 18.3896 8.30469C18.5719 8.63737 18.7109 9.04525 18.8066 9.52832C18.9023 10.0114 18.9502 10.5788 18.9502 11.2305ZM17.6787 12.9531V11.0186C17.6787 10.5719 17.6514 10.18 17.5967 9.84277C17.5465 9.50098 17.4714 9.20931 17.3711 8.96777C17.2708 8.72624 17.1432 8.53027 16.9883 8.37988C16.8379 8.22949 16.6624 8.12012 16.4619 8.05176C16.266 7.97884 16.0449 7.94238 15.7988 7.94238C15.498 7.94238 15.2314 7.99935 14.999 8.11328C14.7666 8.22266 14.5706 8.39811 14.4111 8.63965C14.2562 8.88118 14.1377 9.19792 14.0557 9.58984C13.9736 9.98177 13.9326 10.458 13.9326 11.0186V12.9531C13.9326 13.3997 13.9577 13.7939 14.0078 14.1357C14.0625 14.4775 14.1423 14.7738 14.2471 15.0244C14.3519 15.2705 14.4795 15.4733 14.6299 15.6328C14.7803 15.7923 14.9535 15.9108 15.1494 15.9883C15.3499 16.0612 15.571 16.0977 15.8125 16.0977C16.1224 16.0977 16.3936 16.0384 16.626 15.9199C16.8584 15.8014 17.0521 15.6169 17.207 15.3662C17.3665 15.111 17.485 14.7852 17.5625 14.3887C17.64 13.9876 17.6787 13.5091 17.6787 12.9531Z" fill="#121212"/>
</svg>
