<svg width="24" height="22" viewBox="0 0 24 22" fill="none" xmlns="http://www.w3.org/2000/svg">
<path d="M20.9999 0.649902H12.825C11.55 0.649902 10.4625 1.6999 10.4625 3.0124V5.6749H2.99995C1.72495 5.6749 0.637451 6.7249 0.637451 8.0374V15.2374C0.637451 15.6874 0.824951 16.1374 1.16245 16.4749L5.62495 20.8624C5.96245 21.1999 6.41245 21.3874 6.86245 21.3874H11.1749C12.4499 21.3874 13.4999 20.3374 13.4999 19.0249V13.9624L15.4124 15.8749C15.7499 16.2124 16.2 16.3999 16.65 16.3999H20.9999C22.275 16.3999 23.3624 15.3499 23.3624 14.0374V2.9749C23.3624 1.6999 22.275 0.649902 20.9999 0.649902ZM3.52495 16.3624H5.58745C5.62495 16.3624 5.66245 16.3999 5.66245 16.4374V18.4999L3.52495 16.3624ZM11.8499 19.0249C11.8499 19.3999 11.5499 19.6999 11.2125 19.6999H7.34995V16.4749C7.34995 15.4999 6.56245 14.7124 5.58745 14.7124H2.36245V7.9624C2.36245 7.5874 2.66245 7.2874 3.03745 7.2874H11.8125C11.8499 7.2874 11.8875 7.3249 11.8875 7.3624V19.0249H11.8499ZM13.5374 11.5624V11.3749H15.4124C15.4499 11.3749 15.4874 11.4124 15.4874 11.4499V13.5124L13.5374 11.5624ZM21.6749 14.0374C21.6749 14.4124 21.3749 14.7124 20.9999 14.7124H17.1374V11.4874C17.1374 10.5124 16.3499 9.7249 15.3749 9.7249H13.4999V7.3999C13.4999 6.5749 12.9 5.8624 12.15 5.7124V3.0124C12.15 2.6374 12.45 2.3374 12.825 2.3374H20.9999C21.3749 2.3374 21.6749 2.6374 21.6749 3.0124V14.0374Z" fill="#DCDCDC"/>
</svg>
