<svg width="20" height="24" viewBox="0 0 20 24" fill="none" xmlns="http://www.w3.org/2000/svg">
<path d="M10 0.526367C4.825 0.526367 0.625 4.57637 0.625 9.56387C0.625 13.3514 5.65 19.3514 8.6125 22.5764C8.9875 22.9889 9.475 23.1764 10 23.1764C10.525 23.1764 11.0125 22.9514 11.3875 22.5764C14.35 19.3514 19.375 13.3514 19.375 9.56387C19.375 4.57637 15.175 0.526367 10 0.526367ZM10.15 21.4514C10.075 21.5264 9.9625 21.5264 9.85 21.4514C6.2125 17.4764 2.3125 12.3014 2.3125 9.56387C2.3125 5.51387 5.7625 2.21387 10 2.21387C14.2375 2.21387 17.6875 5.51387 17.6875 9.56387C17.6875 12.3014 13.7875 17.4764 10.15 21.4514Z" fill="#121212"/>
<path d="M10.0001 5.73877C7.7501 5.73877 5.9126 7.57627 5.9126 9.82627C5.9126 12.0763 7.7501 13.9513 10.0001 13.9513C12.2501 13.9513 14.0876 12.1138 14.0876 9.86377C14.0876 7.61377 12.2501 5.73877 10.0001 5.73877ZM10.0001 12.2638C8.6501 12.2638 7.6001 11.1763 7.6001 9.86377C7.6001 8.55127 8.6876 7.46377 10.0001 7.46377C11.3126 7.46377 12.4001 8.55127 12.4001 9.86377C12.4001 11.1763 11.3501 12.2638 10.0001 12.2638Z" fill="#121212"/>
</svg>
