<svg width="6" height="24" viewBox="0 0 6 24" fill="none" xmlns="http://www.w3.org/2000/svg">
<path d="M0 4.08789C0 5.74474 1.34315 7.08789 3 7.08789C4.65685 7.08789 6 5.74474 6 4.08789C6 2.43104 4.65685 1.08789 3 1.08789C1.34315 1.08789 0 2.43104 0 4.08789Z" fill="#727272"/>
<path d="M0 12C0 13.6569 1.34315 15 3 15C4.65685 15 6 13.6569 6 12C6 10.3431 4.65685 9 3 9C1.34315 9 0 10.3431 0 12Z" fill="#727272"/>
<path d="M0 20C0 21.6569 1.34315 23 3 23C4.65685 23 6 21.6569 6 20C6 18.3431 4.65685 17 3 17C1.34315 17 0 18.3431 0 20Z" fill="#727272"/>
</svg>
