<svg width="24" height="26" viewBox="0 0 24 26" fill="none" xmlns="http://www.w3.org/2000/svg">
<path d="M14.4749 10.2876H9.52485C9.07485 10.2876 8.66235 10.6626 8.66235 11.1501C8.66235 11.6376 9.03735 12.0126 9.52485 12.0126H14.4749C14.9249 12.0126 15.3374 11.6376 15.3374 11.1501C15.3374 10.6626 14.9249 10.2876 14.4749 10.2876Z" fill="white"/>
<path d="M18.5624 2.67505H5.4374C4.1624 2.67505 3.1499 3.68755 3.1499 4.96255V17C3.1499 17.5625 3.3749 18.0875 3.7874 18.4625L10.5374 24.8375C10.9124 25.2125 11.3999 25.4 11.9249 25.4H18.5249C19.7999 25.4 20.8124 24.3875 20.8124 23.1125V4.96255C20.8499 3.68755 19.7999 2.67505 18.5624 2.67505ZM6.0749 18.275H10.4624C10.6499 18.275 10.7999 18.425 10.7999 18.575V22.7L6.0749 18.275ZM19.1624 23.0375C19.1624 23.375 18.8999 23.6375 18.5624 23.6375H12.4874V18.575C12.4874 17.4875 11.5874 16.5875 10.4624 16.5875H4.8374V4.96255C4.8374 4.62505 5.0999 4.36255 5.4374 4.36255H18.5249C18.8624 4.36255 19.1249 4.62505 19.1249 4.96255V23.0375H19.1624Z" fill="white"/>
<circle cx="20" cy="4" r="4" fill="#FC5B51"/>
</svg>
