<svg width="24" height="24" viewBox="0 0 24 24" fill="none" xmlns="http://www.w3.org/2000/svg">
<path d="M14.4749 8.2876H9.52485C9.07485 8.2876 8.66235 8.6626 8.66235 9.1501C8.66235 9.6376 9.03735 10.0126 9.52485 10.0126H14.4749C14.9249 10.0126 15.3374 9.6376 15.3374 9.1501C15.3374 8.6626 14.9249 8.2876 14.4749 8.2876Z" fill="white"/>
<path d="M18.5624 0.675049H5.4374C4.1624 0.675049 3.1499 1.68755 3.1499 2.96255V15C3.1499 15.5625 3.3749 16.0875 3.7874 16.4625L10.5374 22.8375C10.9124 23.2125 11.3999 23.4 11.9249 23.4H18.5249C19.7999 23.4 20.8124 22.3875 20.8124 21.1125V2.96255C20.8499 1.68755 19.7999 0.675049 18.5624 0.675049ZM6.0749 16.275H10.4624C10.6499 16.275 10.7999 16.425 10.7999 16.575V20.7001L6.0749 16.275ZM19.1624 21.0375C19.1624 21.375 18.8999 21.6376 18.5624 21.6376H12.4874V16.575C12.4874 15.4875 11.5874 14.5875 10.4624 14.5875H4.8374V2.96255C4.8374 2.62505 5.0999 2.36255 5.4374 2.36255H18.5249C18.8624 2.36255 19.1249 2.62505 19.1249 2.96255V21.0375H19.1624Z" fill="white"/>
</svg>
