<svg width="295" height="81" viewBox="0 0 295 81" fill="none" xmlns="http://www.w3.org/2000/svg">
<path d="M234.238 24.4745L245.094 16.4883H208.758V64.4503H245.094V56.4641H219.127V44.1868H241.275V36.2006H219.127V24.4745H234.238Z" fill="#121212"/>
<path d="M274.529 16.4883H254.746V64.4503H265.116V50.8648H274.529C287.152 50.8648 294.996 44.2395 294.996 33.6528C294.996 23.0661 287.155 16.4883 274.529 16.4883ZM274.307 42.8786H265.116V24.4745H274.307C280.95 24.4745 284.61 27.7423 284.61 33.6765C284.61 39.6108 280.953 42.8786 274.307 42.8786Z" fill="#121212"/>
<path d="M181.336 35.1852H168.717V24.4745H188.862L199.718 16.4883H158.348V64.4503H179.998C192.141 64.4503 199.107 58.9592 199.107 49.3826C199.107 40.228 192.794 35.1852 181.336 35.1852ZM179.531 56.4641H168.717V43.1687H179.531C186.113 43.1687 189.179 45.3921 189.179 49.8151C189.176 54.3357 185.931 56.4641 179.531 56.4641Z" fill="#121212"/>
<path d="M140.546 54.0674C137.887 55.5312 134.79 56.3066 131.595 56.3066C122.246 56.3066 115.462 49.6471 115.462 40.4714C115.462 31.2957 122.248 24.6361 131.595 24.6361C135.131 24.6361 138.302 25.6278 141.027 27.5822L148.463 22.1121L147.971 21.6822C143.63 17.8737 137.826 15.8613 131.194 15.8613C123.998 15.8613 117.465 18.2825 112.804 22.6818C108.113 27.1048 105.531 33.3292 105.531 40.2076C105.531 47.1177 108.105 53.4344 112.777 57.992C117.465 62.5653 123.982 65.0841 131.127 65.0841C138.603 65.0841 145.131 62.4835 149.554 57.7493C146.14 55.2385 142.845 52.8146 142.845 52.8146L140.546 54.0674Z" fill="#121212"/>
<path d="M40.9222 39.3529L25.7244 29.8523V41.2815L40.9222 50.7821L77.3023 24.0481C76.0156 21.2185 74.4038 18.5653 72.5173 16.1335L40.9222 39.3529Z" fill="#121212"/>
<path d="M80.8479 40.4727C80.8479 38.0382 80.6286 35.6538 80.2085 33.3406L71.6135 39.6559C71.6215 39.9273 71.6241 40.1987 71.6241 40.4727C71.6241 57.353 57.8504 71.0875 40.922 71.0875C23.9936 71.0875 10.2199 57.353 10.2199 40.4727C10.2199 23.5923 23.9936 9.85779 40.922 9.85779C47.3372 9.85779 53.3006 11.8312 58.2309 15.2009L65.9963 9.49421C59.1425 3.97194 50.4206 0.660156 40.922 0.660156C18.8704 0.660156 0.996094 18.4837 0.996094 40.4727C0.996094 62.4616 18.8704 80.2852 40.922 80.2852C62.9736 80.2852 80.8479 62.4616 80.8479 40.4727Z" fill="#121212"/>
</svg>
