<svg width="22" height="22" viewBox="0 0 22 22" fill="none" xmlns="http://www.w3.org/2000/svg">
<circle cx="11" cy="10" r="10" fill="#FFCD6D"/>
<g filter="url(#filter0_d_1_1741)">
<path d="M21 10C21 15.5228 16.5228 20 11 20C5.47715 20 1 15.5228 1 10C1 4.47715 5.47715 0 11 0C16.5228 0 21 4.47715 21 10ZM2 10C2 14.9706 6.02944 19 11 19C15.9706 19 20 14.9706 20 10C20 5.02944 15.9706 1 11 1C6.02944 1 2 5.02944 2 10Z" fill="#FFCD6D"/>
</g>
<g filter="url(#filter1_d_1_1741)">
<circle cx="11" cy="10" r="4" fill="#FFCD6D"/>
</g>
<defs>
<filter id="filter0_d_1_1741" x="0" y="0" width="22" height="22" filterUnits="userSpaceOnUse" color-interpolation-filters="sRGB">
<feFlood flood-opacity="0" result="BackgroundImageFix"/>
<feColorMatrix in="SourceAlpha" type="matrix" values="0 0 0 0 0 0 0 0 0 0 0 0 0 0 0 0 0 0 127 0" result="hardAlpha"/>
<feOffset dy="1"/>
<feGaussianBlur stdDeviation="0.5"/>
<feComposite in2="hardAlpha" operator="out"/>
<feColorMatrix type="matrix" values="0 0 0 0 0.0705882 0 0 0 0 0.0705882 0 0 0 0 0.0705882 0 0 0 0.16 0"/>
<feBlend mode="normal" in2="BackgroundImageFix" result="effect1_dropShadow_1_1741"/>
<feBlend mode="normal" in="SourceGraphic" in2="effect1_dropShadow_1_1741" result="shape"/>
</filter>
<filter id="filter1_d_1_1741" x="5" y="5" width="12" height="12" filterUnits="userSpaceOnUse" color-interpolation-filters="sRGB">
<feFlood flood-opacity="0" result="BackgroundImageFix"/>
<feColorMatrix in="SourceAlpha" type="matrix" values="0 0 0 0 0 0 0 0 0 0 0 0 0 0 0 0 0 0 127 0" result="hardAlpha"/>
<feOffset dy="1"/>
<feGaussianBlur stdDeviation="1"/>
<feComposite in2="hardAlpha" operator="out"/>
<feColorMatrix type="matrix" values="0 0 0 0 0.0705882 0 0 0 0 0.0705882 0 0 0 0 0.0705882 0 0 0 0.16 0"/>
<feBlend mode="normal" in2="BackgroundImageFix" result="effect1_dropShadow_1_1741"/>
<feBlend mode="normal" in="SourceGraphic" in2="effect1_dropShadow_1_1741" result="shape"/>
</filter>
</defs>
</svg>
